<svg width="30" height="35" viewBox="0 0 30 35" fill="none" xmlns="http://www.w3.org/2000/svg">
<path d="M3.82153 34.9623C2.92778 34.9623 2.16241 34.6376 1.52541 33.9882C0.889491 33.3377 0.571533 32.5561 0.571533 31.6434V11.7303C0.571533 10.8176 0.889491 10.0365 1.52541 9.38715C2.16241 8.73666 2.92778 8.41141 3.82153 8.41141H7.07153C7.07153 6.11586 7.86399 4.15884 9.44891 2.54034C11.0327 0.922953 12.9486 0.114258 15.1965 0.114258C17.4445 0.114258 19.3609 0.922953 20.9458 2.54034C22.5296 4.15884 23.3215 6.11586 23.3215 8.41141H26.5715C27.4653 8.41141 28.2307 8.73666 28.8677 9.38715C29.5036 10.0365 29.8215 10.8176 29.8215 11.7303V31.6434C29.8215 32.5561 29.5036 33.3377 28.8677 33.9882C28.2307 34.6376 27.4653 34.9623 26.5715 34.9623H3.82153ZM3.82153 31.6434H26.5715V11.7303H3.82153V31.6434ZM15.1965 21.6868C17.4445 21.6868 19.3609 20.8776 20.9458 19.2591C22.5296 17.6417 23.3215 15.6852 23.3215 13.3897H20.0715C20.0715 14.7726 19.5976 15.948 18.6497 16.916C17.7017 17.884 16.5507 18.368 15.1965 18.368C13.8424 18.368 12.6913 17.884 11.7434 16.916C10.7955 15.948 10.3215 14.7726 10.3215 13.3897H7.07153C7.07153 15.6852 7.86399 17.6417 9.44891 19.2591C11.0327 20.8776 12.9486 21.6868 15.1965 21.6868ZM10.3215 8.41141H20.0715C20.0715 7.02855 19.5976 5.85312 18.6497 4.88512C17.7017 3.91712 16.5507 3.43312 15.1965 3.43312C13.8424 3.43312 12.6913 3.91712 11.7434 4.88512C10.7955 5.85312 10.3215 7.02855 10.3215 8.41141Z" fill="#73C2AD"/>
</svg>
