<svg width="38" height="32" viewBox="0 0 38 32" fill="none" xmlns="http://www.w3.org/2000/svg">
<path d="M37.4381 3.99965V27.9976C37.4381 29.0975 37.0794 30.0394 36.362 30.8233C35.6433 31.6059 34.7798 31.9972 33.7715 31.9972H4.43815C3.42982 31.9972 2.56693 31.6059 1.84948 30.8233C1.13082 30.0394 0.771484 29.0975 0.771484 27.9976V3.99965C0.771484 2.89975 1.13082 1.9585 1.84948 1.1759C2.56693 0.391966 3.42982 0 4.43815 0H33.7715C34.7798 0 35.6433 0.391966 36.362 1.1759C37.0794 1.9585 37.4381 2.89975 37.4381 3.99965ZM4.43815 7.9993H33.7715V3.99965H4.43815V7.9993ZM4.43815 15.9986V27.9976H33.7715V15.9986H4.43815Z" fill="#73C2AD"/>
</svg>
