<svg width="28" height="28" viewBox="0 0 28 28" fill="none" xmlns="http://www.w3.org/2000/svg">
<path d="M22.6542 27H5.34579C2.95401 27 1 25.046 1 22.6542V5.34579C1 2.954 2.95401 1 5.34579 1H22.6542C25.046 1 27 2.954 27 5.34579V22.6542C27 25.0567 25.0567 27 22.6542 27Z" stroke="white" stroke-width="2"/>
<path d="M9.28579 18.725C10.5457 19.985 12.2221 20.6791 14.0053 20.6791C15.7885 20.6791 17.4542 19.985 18.7248 18.725C19.9848 17.4651 20.6788 15.7887 20.6788 14.0055C20.6788 12.2224 19.9848 10.546 18.7248 9.28604C17.4648 8.02608 15.7885 7.33203 14.0053 7.33203C12.2221 7.33203 10.5457 8.02608 9.28579 9.28604C8.02583 10.546 7.33179 12.2224 7.33179 14.0055C7.33179 15.7887 8.02583 17.4651 9.28579 18.725Z" stroke="white" stroke-width="2"/>
<path d="M21.9796 7.1125C22.6873 7.1125 23.2609 6.53882 23.2609 5.83115C23.2609 5.12348 22.6873 4.5498 21.9796 4.5498C21.2719 4.5498 20.6982 5.12348 20.6982 5.83115C20.6982 6.53882 21.2719 7.1125 21.9796 7.1125Z" stroke="white" stroke-width="2"/>
</svg>
