<svg width="38" height="39" viewBox="0 0 38 39" fill="none" xmlns="http://www.w3.org/2000/svg">
<path d="M16.9979 38.2052V34.7161C13.4389 34.3091 10.3855 32.8047 7.83783 30.203C5.289 27.6002 3.81528 24.4816 3.41667 20.8471H0V17.3581H3.41667C3.81528 13.7236 5.289 10.605 7.83783 8.00215C10.3855 5.40048 13.4389 3.89611 16.9979 3.48906V0H20.4146V3.48906C23.9736 3.89611 27.0275 5.40048 29.5764 8.00215C32.1241 10.605 33.5972 13.7236 33.9958 17.3581H37.4125V20.8471H33.9958C33.5972 24.4816 32.1241 27.6002 29.5764 30.203C27.0275 32.8047 23.9736 34.3091 20.4146 34.7161V38.2052H16.9979ZM18.7062 31.3143C22.009 31.3143 24.8278 30.1222 27.1625 27.738C29.4972 25.3538 30.6646 22.4753 30.6646 19.1026C30.6646 15.7298 29.4972 12.8514 27.1625 10.4672C24.8278 8.08298 22.009 6.89089 18.7062 6.89089C15.4035 6.89089 12.5847 8.08298 10.25 10.4672C7.91528 12.8514 6.74792 15.7298 6.74792 19.1026C6.74792 22.4753 7.91528 25.3538 10.25 27.738C12.5847 30.1222 15.4035 31.3143 18.7062 31.3143ZM18.7062 26.0807C16.8271 26.0807 15.2184 25.3974 13.8802 24.0309C12.542 22.6643 11.8729 21.0216 11.8729 19.1026C11.8729 17.1836 12.542 15.5408 13.8802 14.1743C15.2184 12.8077 16.8271 12.1245 18.7062 12.1245C20.5854 12.1245 22.1941 12.8077 23.5323 14.1743C24.8705 15.5408 25.5396 17.1836 25.5396 19.1026C25.5396 21.0216 24.8705 22.6643 23.5323 24.0309C22.1941 25.3974 20.5854 26.0807 18.7062 26.0807ZM18.7062 22.5916C19.6458 22.5916 20.4505 22.2497 21.1201 21.5659C21.7887 20.8832 22.1229 20.0621 22.1229 19.1026C22.1229 18.1431 21.7887 17.3214 21.1201 16.6376C20.4505 15.9549 19.6458 15.6135 18.7062 15.6135C17.7667 15.6135 16.9626 15.9549 16.2941 16.6376C15.6244 17.3214 15.2896 18.1431 15.2896 19.1026C15.2896 20.0621 15.6244 20.8832 16.2941 21.5659C16.9626 22.2497 17.7667 22.5916 18.7062 22.5916Z" fill="#73C2AD"/>
</svg>
