<svg width="50" height="48" viewBox="0 0 50 48" fill="none" xmlns="http://www.w3.org/2000/svg">
<ellipse cx="25" cy="24" rx="25" ry="24" fill="#C94040"/>
<mask id="mask0_1_5352" style="mask-type:alpha" maskUnits="userSpaceOnUse" x="4" y="3" width="42" height="42">
<rect x="4.05322" y="3.05322" width="41.9467" height="41.9467" fill="#D9D9D9"/>
</mask>
<g mask="url(#mask0_1_5352)">
<path d="M11.0444 38.0089C10.0831 38.0089 9.26049 37.6669 8.57652 36.983C7.89139 36.2978 7.54883 35.4746 7.54883 34.5134V13.54C7.54883 12.5787 7.89139 11.7561 8.57652 11.0721C9.26049 10.387 10.0831 10.0444 11.0444 10.0444H39.0089C39.9701 10.0444 40.7934 10.387 41.4785 11.0721C42.1624 11.7561 42.5044 12.5787 42.5044 13.54V34.5134C42.5044 35.4746 42.1624 36.2978 41.4785 36.983C40.7934 37.6669 39.9701 38.0089 39.0089 38.0089H11.0444ZM25.0266 25.7745L11.0444 17.0356V34.5134H39.0089V17.0356L25.0266 25.7745ZM25.0266 22.2789L39.0089 13.54H11.0444L25.0266 22.2789ZM11.0444 17.0356V13.54V34.5134V17.0356Z" fill="white"/>
</g>
</svg>
