<svg width="18" height="34" viewBox="0 0 18 34" fill="none" xmlns="http://www.w3.org/2000/svg">
<path d="M7.14357 33.8474V29.9137C5.56093 29.5477 4.19509 28.8464 3.04603 27.8096C1.89578 26.7728 1.0519 25.3091 0.514404 23.4185L3.82899 22.0463C4.27691 23.51 4.94161 24.623 5.82311 25.3853C6.70342 26.1477 7.86024 26.5289 9.29357 26.5289C10.5179 26.5289 11.5559 26.2471 12.4075 25.6836C13.2579 25.1188 13.6832 24.2418 13.6832 23.0526C13.6832 21.9853 13.3547 21.1388 12.6977 20.513C12.0408 19.8885 10.5179 19.1798 8.12899 18.387C5.56093 17.5637 3.79913 16.5806 2.84357 15.4376C1.88802 14.2935 1.41024 12.8981 1.41024 11.2515C1.41024 9.26936 2.03732 7.72943 3.29149 6.63165C4.54565 5.53387 5.82968 4.90875 7.14357 4.75628V0.914062H10.7269V4.75628C12.22 5.00023 13.452 5.55644 14.4231 6.4249C15.393 7.29459 16.1019 8.35455 16.5498 9.6048L13.2352 11.0685C12.8769 10.0927 12.3693 9.36084 11.7123 8.87294C11.0554 8.38504 10.1595 8.14109 9.02482 8.14109C7.71093 8.14109 6.71058 8.43871 6.02378 9.03395C5.33697 9.62797 4.99357 10.3671 4.99357 11.2515C4.99357 12.2578 5.44149 13.0506 6.33732 13.63C7.23315 14.2094 8.78593 14.8192 10.9957 15.4596C13.0561 16.0695 14.6166 17.0374 15.6773 18.3632C16.7368 19.6903 17.2665 21.2229 17.2665 22.9611C17.2665 25.1261 16.6394 26.7728 15.3852 27.9011C14.1311 29.0293 12.5783 29.7307 10.7269 30.0051V33.8474H7.14357Z" fill="#73C2AD"/>
</svg>
