<svg width="48" height="48" viewBox="0 0 48 48" fill="none" xmlns="http://www.w3.org/2000/svg">
<rect width="48" height="48" fill="#F5F5F5"/>
<g clip-path="url(#clip0_0_1)">
<rect width="1440" height="7480" transform="translate(-1114 -6058)" fill="white"/>
<path d="M46.121 13.7365C44.9079 11.0557 43.1664 8.64891 40.9552 6.57474C38.7441 4.52013 36.1807 2.89602 33.3238 1.76109C30.3691 0.58703 27.2382 0 24.0096 0C20.7809 0 17.6501 0.58703 14.6953 1.76109C11.8385 2.89602 9.2751 4.50057 7.06395 6.57474C4.8528 8.64891 3.1113 11.0557 1.8981 13.7365C0.645772 16.5151 0 19.4894 0 22.542C0 27.8839 1.99588 33.0107 5.65504 37.0807L3.69827 47.7451L14.1083 43.1076C17.2196 44.4382 20.5265 45.1035 23.99 45.1035C27.2187 45.1035 30.3495 44.5165 33.3042 43.3424C36.1611 42.2075 38.7245 40.6029 40.9356 38.5288C43.1468 36.4546 44.8883 34.0478 46.1015 31.367C47.3538 28.5884 47.9996 25.6141 47.9996 22.5615C48.0191 19.4894 47.3734 16.5347 46.121 13.7365Z" fill="#30D52C"/>
<path d="M33.7542 27.0426C32.7367 26.5338 31.9932 26.2208 31.4649 26.0251C31.1322 25.9077 30.3495 25.5555 30.0756 25.7707C29.2146 26.4751 28.2949 28.471 27.3165 28.8428C24.8901 28.3732 22.6398 26.7099 20.8788 25.0076C20.096 24.264 18.648 22.1507 18.335 21.5832C18.2763 20.9962 19.3329 20.2135 19.5677 19.7634C20.7809 18.3937 19.8612 17.5327 19.7047 16.9652C19.4307 16.3782 18.9611 15.3216 18.5502 14.4606C18.198 13.8931 18.1197 13.0517 17.4935 12.7386C14.8323 11.3689 13.3061 14.1084 12.6799 15.5368C8.90335 24.6358 31.6018 41.9532 36.2198 30.0169C36.4546 28.9798 36.3567 28.5884 36.0045 28.1188C35.3001 27.6296 34.4783 27.4144 33.7542 27.0426Z" fill="white"/>
</g>
<defs>
<clipPath id="clip0_0_1">
<rect width="1440" height="7480" fill="white" transform="translate(-1114 -6058)"/>
</clipPath>
</defs>
</svg>
